# xmcd
#
# Track frame offsets: 
#        183
#        22710
#        35808
#        65283
#        92358
#        118533
#        135333
#        156558
#        174333
#        195858
#        217400
#        240858
#        257433
#        279033
#
# Disc length: 3920 seconds
#
# Revision: 2
# Processed by: cddbd v1.5.2PL0 Copyright (c) Steve Scherf et al.
# Submitted via: ExactAudioCopy v0.99pb5
#
DISCID=aa0f4e0e
DTITLE=Anthrax - Madhouse (Italy Golden Stars GSCD 1073)
DYEAR=1992
DGENRE=Thrash Metal
TTITLE0=A.I.R.
TTITLE1=Metal Trashing Mad
TTITLE2=Panic
TTITLE3=The Enemy
TTITLE4=I'm The Law
TTITLE5=Madhouse
TTITLE6=S.S.C. - Stand Or Fall
TTITLE7=Howling Furier
TTITLE8=Medusa
TTITLE9=Armed and Dangerous
TTITLE10=Sabbath Bloody Sabbath
TTITLE11=God Save The Queen
TTITLE12=Gung-Ho
TTITLE13=Soldiers Of Metal
EXTD=
EXTT0=
EXTT1=
EXTT2=
EXTT3=
EXTT4=
EXTT5=
EXTT6=
EXTT7=
EXTT8=
EXTT9=
EXTT10=
EXTT11=
EXTT12=
EXTT13=
PLAYORDER=
